<svg width="239" height="62" viewBox="0 0 239 62" fill="none" xmlns="http://www.w3.org/2000/svg">
<path d="M2.808 44L8.784 19.052H24.156L23.256 22.832H12.384L10.836 29.312H20.448L19.548 33.056H9.972L7.344 44H2.808ZM38.0644 36.692C37.9924 36.956 37.9204 37.388 37.8484 37.988C37.7764 38.588 37.7404 39.152 37.7404 39.68C37.7404 40.376 37.8004 41.06 37.9204 41.732C38.0404 42.38 38.2324 43.04 38.4964 43.712L34.6084 44.288C34.3204 43.712 34.0924 43.1 33.9244 42.452C33.3244 42.98 32.5804 43.46 31.6924 43.892C30.8284 44.3 29.8444 44.504 28.7404 44.504C27.6124 44.504 26.6404 44.324 25.8244 43.964C25.0324 43.58 24.3844 43.064 23.8804 42.416C23.3764 41.744 23.0044 40.964 22.7644 40.076C22.5244 39.188 22.4044 38.228 22.4044 37.196C22.4044 35.444 22.7164 33.812 23.3404 32.3C23.9644 30.788 24.8284 29.48 25.9324 28.376C27.0604 27.272 28.3924 26.408 29.9284 25.784C31.4644 25.136 33.1444 24.812 34.9684 24.812C35.9044 24.812 36.8404 24.896 37.7764 25.064C38.7364 25.208 39.6964 25.496 40.6564 25.928L38.0644 36.692ZM35.6884 28.556C35.2324 28.46 34.7164 28.412 34.1404 28.412C33.0604 28.412 32.0644 28.652 31.1524 29.132C30.2404 29.588 29.4484 30.212 28.7764 31.004C28.1284 31.772 27.6244 32.66 27.2644 33.668C26.9044 34.676 26.7244 35.732 26.7244 36.836C26.7244 37.388 26.7724 37.904 26.8684 38.384C26.9644 38.864 27.1204 39.284 27.3364 39.644C27.5764 40.004 27.8884 40.292 28.2724 40.508C28.6564 40.724 29.1484 40.832 29.7484 40.832C30.5164 40.832 31.1884 40.676 31.7644 40.364C32.3644 40.028 32.9164 39.584 33.4204 39.032C33.4444 38.408 33.4924 37.82 33.5644 37.268C33.6604 36.716 33.7804 36.164 33.9244 35.612L35.6884 28.556ZM47.1226 40.94C48.2746 40.94 49.1866 40.76 49.8586 40.4C50.5306 40.016 50.8666 39.44 50.8666 38.672C50.8666 38.048 50.6506 37.556 50.2186 37.196C49.7866 36.812 49.0306 36.368 47.9506 35.864C47.3746 35.6 46.8346 35.324 46.3306 35.036C45.8506 34.748 45.4306 34.412 45.0706 34.028C44.7106 33.644 44.4226 33.2 44.2066 32.696C43.9906 32.168 43.8826 31.544 43.8826 30.824C43.8826 28.952 44.5666 27.464 45.9346 26.36C47.3026 25.256 49.2826 24.704 51.8746 24.704C53.0746 24.704 54.1426 24.836 55.0786 25.1C56.0386 25.34 56.7586 25.592 57.2386 25.856L55.6906 29.24C55.2826 29 54.6946 28.772 53.9266 28.556C53.1586 28.316 52.3546 28.196 51.5146 28.196C51.1066 28.196 50.6986 28.232 50.2906 28.304C49.9066 28.376 49.5586 28.496 49.2466 28.664C48.9346 28.832 48.6706 29.072 48.4546 29.384C48.2626 29.672 48.1666 30.032 48.1666 30.464C48.1666 31.016 48.3826 31.472 48.8146 31.832C49.2706 32.168 49.9186 32.528 50.7586 32.912C51.5506 33.272 52.2226 33.62 52.7746 33.956C53.3266 34.292 53.7826 34.676 54.1426 35.108C54.5026 35.516 54.7666 35.984 54.9346 36.512C55.1026 37.016 55.1866 37.628 55.1866 38.348C55.1866 39.236 55.0066 40.064 54.6466 40.832C54.2866 41.576 53.7586 42.224 53.0626 42.776C52.3906 43.304 51.5506 43.724 50.5426 44.036C49.5346 44.348 48.3826 44.504 47.0866 44.504C46.1986 44.504 45.3946 44.444 44.6746 44.324C43.9786 44.204 43.3666 44.072 42.8386 43.928C42.3106 43.76 41.8666 43.592 41.5066 43.424C41.1466 43.256 40.8706 43.112 40.6786 42.992L42.2266 39.572C42.3946 39.668 42.6346 39.8 42.9466 39.968C43.2826 40.112 43.6546 40.256 44.0626 40.4C44.4946 40.544 44.9626 40.676 45.4666 40.796C45.9946 40.892 46.5466 40.94 47.1226 40.94ZM62.6918 20.204L67.2278 19.484L65.8598 25.172H72.0158L71.1518 28.772H64.9958L63.1958 36.224C63.0758 36.752 62.9918 37.196 62.9438 37.556C62.8958 37.892 62.8718 38.204 62.8718 38.492C62.8718 38.78 62.8958 39.068 62.9438 39.356C63.0158 39.62 63.1358 39.86 63.3038 40.076C63.4958 40.268 63.7598 40.436 64.0957 40.58C64.4558 40.7 64.9358 40.76 65.5358 40.76C66.1838 40.76 66.8078 40.676 67.4078 40.508C68.0078 40.34 68.5358 40.16 68.9918 39.968L69.3158 43.46C68.7638 43.7 68.0678 43.928 67.2278 44.144C66.3878 44.36 65.4038 44.468 64.2758 44.468C62.2118 44.468 60.7358 44.024 59.8478 43.136C58.9598 42.224 58.5158 40.988 58.5158 39.428C58.5158 38.852 58.5518 38.264 58.6238 37.664C58.7198 37.04 58.8518 36.38 59.0198 35.684L62.6918 20.204ZM72.8303 31.724H82.4063L81.4703 35.72H71.8943L72.8303 31.724ZM88.598 40.688C89.246 40.688 89.882 40.628 90.506 40.508C91.154 40.388 91.73 40.184 92.234 39.896C92.762 39.608 93.182 39.224 93.494 38.744C93.806 38.24 93.962 37.616 93.962 36.872C93.962 36.32 93.842 35.852 93.602 35.468C93.362 35.06 93.038 34.7 92.63 34.388C92.222 34.076 91.754 33.788 91.226 33.524C90.722 33.236 90.182 32.936 89.606 32.624C88.982 32.312 88.382 31.964 87.806 31.58C87.254 31.172 86.762 30.716 86.33 30.212C85.898 29.708 85.55 29.12 85.286 28.448C85.046 27.776 84.926 26.984 84.926 26.072C84.926 24.968 85.13 23.96 85.538 23.048C85.97 22.112 86.594 21.308 87.41 20.636C88.25 19.964 89.27 19.436 90.47 19.052C91.694 18.668 93.11 18.476 94.718 18.476C95.462 18.476 96.17 18.536 96.842 18.656C97.538 18.776 98.186 18.932 98.786 19.124C99.386 19.292 99.914 19.484 100.37 19.7C100.826 19.916 101.186 20.12 101.45 20.312L99.47 23.768C98.966 23.36 98.258 23.012 97.346 22.724C96.458 22.436 95.474 22.292 94.394 22.292C93.746 22.292 93.122 22.364 92.522 22.508C91.946 22.628 91.43 22.832 90.974 23.12C90.542 23.384 90.194 23.744 89.93 24.2C89.69 24.632 89.57 25.148 89.57 25.748C89.57 26.3 89.654 26.756 89.822 27.116C90.014 27.476 90.266 27.8 90.578 28.088C90.914 28.352 91.298 28.604 91.73 28.844C92.162 29.06 92.63 29.312 93.134 29.6C93.878 30.008 94.574 30.416 95.222 30.824C95.894 31.232 96.482 31.7 96.986 32.228C97.49 32.756 97.886 33.368 98.174 34.064C98.486 34.736 98.642 35.552 98.642 36.512C98.642 37.856 98.39 39.032 97.886 40.04C97.382 41.048 96.674 41.888 95.762 42.56C94.85 43.208 93.77 43.7 92.522 44.036C91.274 44.372 89.906 44.54 88.418 44.54C87.434 44.54 86.522 44.468 85.682 44.324C84.866 44.18 84.134 44 83.486 43.784C82.838 43.568 82.274 43.34 81.794 43.1C81.338 42.86 80.978 42.644 80.714 42.452L82.73 38.888C82.97 39.056 83.282 39.248 83.666 39.464C84.074 39.68 84.53 39.884 85.034 40.076C85.538 40.244 86.09 40.388 86.69 40.508C87.29 40.628 87.926 40.688 88.598 40.688ZM106.25 20.204L110.786 19.484L109.418 25.172H115.574L114.71 28.772H108.554L106.754 36.224C106.634 36.752 106.55 37.196 106.502 37.556C106.454 37.892 106.43 38.204 106.43 38.492C106.43 38.78 106.454 39.068 106.502 39.356C106.574 39.62 106.694 39.86 106.862 40.076C107.054 40.268 107.318 40.436 107.654 40.58C108.014 40.7 108.494 40.76 109.094 40.76C109.742 40.76 110.366 40.676 110.966 40.508C111.566 40.34 112.094 40.16 112.55 39.968L112.874 43.46C112.322 43.7 111.626 43.928 110.786 44.144C109.946 44.36 108.962 44.468 107.834 44.468C105.77 44.468 104.294 44.024 103.406 43.136C102.518 42.224 102.074 40.988 102.074 39.428C102.074 38.852 102.11 38.264 102.182 37.664C102.278 37.04 102.41 36.38 102.578 35.684L106.25 20.204ZM129.412 29.024C128.932 28.856 128.416 28.724 127.864 28.628C127.312 28.532 126.664 28.484 125.92 28.484C125.512 28.484 125.08 28.52 124.624 28.592C124.168 28.64 123.784 28.712 123.472 28.808L119.836 44H115.48L119.8 26.036C120.808 25.7 121.9 25.412 123.076 25.172C124.252 24.908 125.524 24.776 126.892 24.776C127.18 24.776 127.504 24.8 127.864 24.848C128.224 24.872 128.572 24.908 128.908 24.956C129.268 25.004 129.592 25.064 129.88 25.136C130.192 25.208 130.456 25.292 130.672 25.388L129.412 29.024ZM130.722 37.196C130.722 35.588 130.974 34.04 131.478 32.552C132.006 31.04 132.75 29.708 133.71 28.556C134.694 27.38 135.87 26.444 137.238 25.748C138.606 25.052 140.142 24.704 141.846 24.704C143.67 24.704 145.086 25.172 146.094 26.108C147.102 27.044 147.606 28.244 147.606 29.708C147.606 31.22 147.234 32.444 146.49 33.38C145.746 34.316 144.774 35.048 143.574 35.576C142.398 36.104 141.054 36.464 139.542 36.656C138.054 36.848 136.542 36.968 135.006 37.016C134.982 37.064 134.97 37.112 134.97 37.16V37.52C134.97 39.704 136.35 40.796 139.11 40.796C140.742 40.796 142.374 40.46 144.006 39.788L144.366 43.316C143.79 43.58 142.974 43.844 141.918 44.108C140.862 44.372 139.662 44.504 138.318 44.504C136.974 44.504 135.822 44.312 134.862 43.928C133.902 43.544 133.11 43.016 132.486 42.344C131.886 41.672 131.442 40.904 131.154 40.04C130.866 39.152 130.722 38.204 130.722 37.196ZM141.198 28.268C140.478 28.268 139.794 28.412 139.146 28.7C138.498 28.988 137.922 29.384 137.418 29.888C136.914 30.392 136.47 30.992 136.086 31.688C135.726 32.36 135.462 33.092 135.294 33.884C138.174 33.788 140.262 33.44 141.558 32.84C142.878 32.24 143.538 31.34 143.538 30.14C143.538 29.66 143.358 29.228 142.998 28.844C142.662 28.46 142.062 28.268 141.198 28.268ZM165.154 36.692C165.082 36.956 165.01 37.388 164.938 37.988C164.866 38.588 164.83 39.152 164.83 39.68C164.83 40.376 164.89 41.06 165.01 41.732C165.13 42.38 165.322 43.04 165.586 43.712L161.698 44.288C161.41 43.712 161.182 43.1 161.014 42.452C160.414 42.98 159.67 43.46 158.782 43.892C157.918 44.3 156.934 44.504 155.83 44.504C154.702 44.504 153.73 44.324 152.914 43.964C152.122 43.58 151.474 43.064 150.97 42.416C150.466 41.744 150.094 40.964 149.854 40.076C149.614 39.188 149.494 38.228 149.494 37.196C149.494 35.444 149.806 33.812 150.43 32.3C151.054 30.788 151.918 29.48 153.022 28.376C154.15 27.272 155.482 26.408 157.018 25.784C158.554 25.136 160.234 24.812 162.058 24.812C162.994 24.812 163.93 24.896 164.866 25.064C165.826 25.208 166.786 25.496 167.746 25.928L165.154 36.692ZM162.778 28.556C162.322 28.46 161.806 28.412 161.23 28.412C160.15 28.412 159.154 28.652 158.242 29.132C157.33 29.588 156.538 30.212 155.866 31.004C155.218 31.772 154.714 32.66 154.354 33.668C153.994 34.676 153.814 35.732 153.814 36.836C153.814 37.388 153.862 37.904 153.958 38.384C154.054 38.864 154.21 39.284 154.426 39.644C154.666 40.004 154.978 40.292 155.362 40.508C155.746 40.724 156.238 40.832 156.838 40.832C157.606 40.832 158.278 40.676 158.854 40.364C159.454 40.028 160.006 39.584 160.51 39.032C160.534 38.408 160.582 37.82 160.654 37.268C160.75 36.716 160.87 36.164 161.014 35.612L162.778 28.556ZM173.096 25.964C174.056 25.676 175.136 25.412 176.336 25.172C177.536 24.908 178.856 24.776 180.296 24.776C181.376 24.776 182.276 24.932 182.996 25.244C183.74 25.556 184.364 26 184.868 26.576C185.564 26.168 186.404 25.772 187.388 25.388C188.396 24.98 189.536 24.776 190.808 24.776C191.912 24.776 192.848 24.932 193.616 25.244C194.384 25.556 195.008 25.988 195.488 26.54C195.968 27.092 196.316 27.752 196.532 28.52C196.748 29.264 196.856 30.08 196.856 30.968C196.856 31.952 196.724 32.996 196.46 34.1L194.084 44H189.728L191.96 34.568C192.08 34.112 192.188 33.62 192.284 33.092C192.404 32.54 192.464 31.988 192.464 31.436C192.464 31.052 192.416 30.68 192.32 30.32C192.248 29.936 192.104 29.612 191.888 29.348C191.672 29.084 191.372 28.868 190.988 28.7C190.628 28.532 190.16 28.448 189.584 28.448C188.96 28.448 188.348 28.568 187.748 28.808C187.148 29.048 186.644 29.3 186.236 29.564C186.332 30.02 186.38 30.512 186.38 31.04C186.38 31.52 186.344 32.024 186.272 32.552C186.2 33.08 186.104 33.596 185.984 34.1L183.608 44H179.252L181.484 34.568C181.604 34.136 181.712 33.644 181.808 33.092C181.928 32.516 181.988 31.952 181.988 31.4C181.988 30.608 181.796 29.924 181.412 29.348C181.052 28.748 180.356 28.448 179.324 28.448C178.844 28.448 178.388 28.484 177.956 28.556C177.524 28.604 177.128 28.676 176.768 28.772L173.132 44H168.776L173.096 25.964Z" fill="black"/>
<path d="M208.259 14.4836C208.189 14.5188 208.105 14.6664 208.062 14.8141C208.02 14.9828 207.992 17.5563 207.992 22.3375C207.992 30.3672 207.971 30.0227 208.428 30.1422C208.604 30.1844 208.885 30.1422 209.609 29.9664C212.457 29.2633 215.298 28.8133 218.166 28.6023C219.713 28.4898 224.052 28.5602 225.465 28.7148C227.813 28.968 230.127 29.3828 232.292 29.9383C233.199 30.1633 233.389 30.1914 233.593 30.1281C233.776 30.0719 233.853 29.9875 233.916 29.8047C234.029 29.4813 234.043 15.2078 233.937 14.8141C233.797 14.3148 233.586 14.3008 232.06 14.6875C224.916 16.5016 217.52 16.5016 209.968 14.6805C208.787 14.3992 208.463 14.357 208.259 14.4836ZM210.172 15.9813C215.888 17.3172 221.837 17.5914 227.609 16.7898C229.107 16.5859 231.73 16.0516 232.693 15.7703C232.805 15.7352 232.812 16.0797 232.812 22.2813C232.812 28.4828 232.805 28.8273 232.693 28.7922C231.723 28.5039 229.093 27.9766 227.609 27.7727C225.17 27.4352 223.763 27.3438 221.141 27.3438C218.314 27.3367 216.465 27.4773 213.828 27.8781C212.415 28.0961 209.961 28.5953 209.314 28.7922C209.195 28.8273 209.187 28.4828 209.187 22.2813C209.187 16.0797 209.195 15.7352 209.314 15.7703C209.377 15.7914 209.764 15.8898 210.172 15.9813Z" fill="black"/>
<path d="M217.815 18.4281C217.752 18.4773 217.667 18.6109 217.625 18.7164C217.52 19.0047 217.527 25.5578 217.632 25.8672C217.73 26.1414 218.047 26.3031 218.342 26.2117C218.616 26.1344 224.656 22.8438 224.811 22.682C224.959 22.5414 224.98 22.0844 224.853 21.9156C224.804 21.8523 223.334 21.0227 221.591 20.0734C218.335 18.2945 218.117 18.2031 217.815 18.4281ZM223.039 22.2813C223.039 22.3023 222.076 22.8438 220.895 23.4906L218.75 24.6578V22.2813V19.9047L220.895 21.0719C222.076 21.7188 223.039 22.2602 223.039 22.2813Z" fill="black"/>
<path d="M210.77 31.225C208.224 31.8437 206.769 32.4555 205.904 33.2711C205.229 33.9109 205.25 33.7562 205.25 37.4687C205.25 41.2305 205.215 41.0336 205.995 41.7508C207.261 42.9109 210.502 43.8602 214.798 44.3312L215.937 44.4578V45.8852C215.937 47.2211 215.945 47.3195 216.078 47.4531C216.24 47.6148 216.69 47.643 216.866 47.5023C216.929 47.4602 218.012 46.1242 219.27 44.5422C221.373 41.9055 221.562 41.6453 221.562 41.3992C221.562 41.1531 221.38 40.9 219.27 38.2633C218.005 36.6883 216.922 35.3523 216.866 35.3031C216.69 35.1695 216.24 35.1977 216.078 35.3594C215.952 35.4859 215.937 35.5914 215.937 36.5617V37.6234L215.396 37.5742C215.094 37.5461 214.215 37.4336 213.441 37.3211C212.668 37.2086 212.028 37.1172 212.021 37.1172C212.007 37.1172 212 35.8445 212 34.2836V31.443L211.838 31.2953C211.655 31.1266 211.276 31.0984 210.77 31.225ZM210.819 34.6352C210.833 35.8305 210.84 36.8148 210.826 36.8289C210.819 36.843 210.601 36.8008 210.341 36.7375C208.787 36.3437 207.296 35.7039 206.762 35.1977C206.509 34.9516 206.445 34.8461 206.445 34.6562C206.445 34.0445 207.866 33.2641 210.087 32.6523C210.425 32.5609 210.72 32.4836 210.741 32.4836C210.77 32.4766 210.805 33.4469 210.819 34.6352ZM208.512 37.4477C210.355 38.0734 213.462 38.65 216.05 38.8398C216.648 38.8891 216.697 38.882 216.88 38.7273C217.041 38.5867 217.077 38.4812 217.119 38.0805L217.168 37.5953L218.694 39.5078L220.22 41.4133L218.694 43.3117L217.168 45.2102L217.133 44.4227C217.077 43.368 217.07 43.3609 215.79 43.2414C211.536 42.8547 207.852 41.8633 206.762 40.8227L206.445 40.5133V38.5094V36.5055L207.12 36.857C207.493 37.0469 208.119 37.3141 208.512 37.4477Z" fill="black"/>
<path d="M230.148 31.2742C230.021 31.4008 230.014 31.5695 229.986 34.2203C229.979 35.7672 229.944 37.0539 229.916 37.082C229.761 37.2437 226.372 37.6375 224.143 37.7641C222.716 37.8484 222.68 37.8484 222.716 37.9891C222.737 38.0734 222.758 38.3406 222.758 38.5867V39.0367L223.763 38.9875C228.678 38.7484 232.707 37.982 234.901 36.8641L235.625 36.4984V38.3547C235.625 40.443 235.611 40.5344 235.161 40.9C233.677 42.1234 229.381 43.1008 224.234 43.3891C222.716 43.4734 222.68 43.4734 222.716 43.6141C222.737 43.6984 222.758 43.9656 222.758 44.2117V44.6617L223.763 44.6125C229.775 44.3172 234.373 43.2484 235.998 41.7578C236.792 41.0336 236.75 41.2516 236.75 37.4828C236.75 33.8266 236.771 33.9812 236.216 33.3906C235.428 32.5539 233.804 31.8297 231.455 31.2812C230.675 31.1055 230.323 31.0984 230.148 31.2742ZM232.264 32.7578C233.825 33.2078 235.027 33.7984 235.421 34.2906C235.491 34.3891 235.555 34.5578 235.555 34.6773C235.555 35.1484 234.542 35.8094 233.023 36.3297C232.194 36.6109 231.209 36.8711 231.16 36.8219C231.111 36.7727 231.216 32.4766 231.266 32.4766C231.294 32.4766 231.744 32.6031 232.264 32.7578Z" fill="black"/>
</svg>
